<svg width="84" height="36" viewBox="0 0 84 36" fill="none" xmlns="http://www.w3.org/2000/svg">
<g clip-path="url(#clip0_6942_10283)">
<g clip-path="url(#clip1_6942_10283)">
<path d="M73.9112 17.0821L73.8741 17.1193C74.1343 16.4131 74.6546 16.1529 75.1006 16.1529C75.7325 16.1529 76.29 16.6361 76.29 17.3423C76.29 17.491 76.29 17.6768 76.2157 17.8998C74.9148 21.245 72.1643 22.9547 69.4882 23.2149C68.2617 25.2963 66.2546 26.8202 63.3926 26.8202C59.3041 26.8202 57.4829 23.5866 57.4829 20.0556C57.4829 15.7069 60.2334 10.875 64.8422 10.875C65.8457 10.875 66.7006 11.0981 67.4068 11.3954C69.4882 12.1759 70.8263 14.8892 70.8263 17.7883C70.8263 18.7175 70.7519 19.6467 70.5289 20.5388C71.9042 20.0556 73.205 18.9405 73.9112 17.0821ZM66.1431 13.9228V13.8857C65.3254 13.8857 64.8422 14.9635 64.8422 16.2644C64.8422 18.16 65.8829 19.9069 67.5183 20.5388C67.7785 19.7211 67.89 18.7919 67.89 17.714C67.89 15.6326 67.2581 13.9228 66.1431 13.9228ZM63.4298 24.1069C64.4705 24.1069 65.5112 23.6609 66.3289 22.7317C63.913 21.6538 62.3891 19.1264 62.3891 16.7104C62.3891 15.8927 62.5378 15.0379 62.7608 14.2945C61.2741 15.5211 60.4192 17.937 60.4192 20.0556C60.4192 22.806 61.7201 24.1069 63.4298 24.1069Z" fill="black"/>
<path d="M58.0568 17.0813L58.0196 17.1185C58.2798 16.4123 58.7258 16.115 59.1718 16.115C59.8037 16.115 60.4355 16.6725 60.4355 17.3787C60.4355 17.5645 60.3984 17.7132 60.324 17.899C58.8745 21.43 56.7187 25.5557 53.2621 27.9716L53.1878 28.715C52.7789 33.1752 50.5117 35.9999 47.6497 35.9999C45.4939 35.9999 44.2302 34.5132 44.2302 32.7663C44.2302 29.607 47.4638 28.4548 50.4745 26.5221C50.5488 25.7415 50.586 24.8495 50.6231 23.8459C49.1364 25.4813 47.5382 26.1504 46.1258 26.1504C43.301 26.1504 40.9966 23.8459 40.9966 20.315C40.9966 14.8884 44.5647 11.3203 48.5417 11.3203H48.5789C51.2922 11.3203 54.1913 12.7698 54.1913 15.3716C54.1913 16.2265 53.8196 20.8725 53.5223 24.4778C55.5293 22.5822 57.2019 19.4973 58.0568 17.0813ZM46.5346 23.4743C47.9099 23.4743 49.7683 22.6194 50.9205 18.4194C51.1063 17.4902 51.2178 16.6725 51.1807 15.7061C50.9577 14.7026 50.1028 14.1079 48.8762 14.1079C46.3488 14.1079 43.9329 16.5238 43.9329 20.2035C43.9329 22.4336 44.9736 23.4743 46.5346 23.4743ZM47.947 33.2867H47.9842C48.7647 33.2867 49.6196 32.7663 50.1771 29.4212C48.5417 30.3875 47.0178 31.3539 47.0178 32.5061C47.0178 32.9893 47.3895 33.2867 47.947 33.2867Z" fill="black"/>
<path d="M41.6485 17.0821L41.6114 17.1193C41.8715 16.4131 42.3919 16.1529 42.8379 16.1529C43.4698 16.1529 44.0273 16.6361 44.0273 17.3423C44.0273 17.491 44.0273 17.6768 43.953 17.8998C42.6521 21.245 39.9016 22.9547 37.2255 23.2149C35.999 25.2963 33.9919 26.8202 31.1299 26.8202C27.0414 26.8202 25.2202 23.5866 25.2202 20.0556C25.2202 15.7069 27.9706 10.875 32.5795 10.875C33.583 10.875 34.4379 11.0981 35.1441 11.3954C37.2255 12.1759 38.5636 14.8892 38.5636 17.7883C38.5636 18.7175 38.4892 19.6467 38.2662 20.5388C39.6415 20.0556 40.9423 18.9405 41.6485 17.0821ZM33.8804 13.9228V13.8857C33.0627 13.8857 32.5795 14.9635 32.5795 16.2644C32.5795 18.16 33.6202 19.9069 35.2556 20.5388C35.5158 19.7211 35.6273 18.7919 35.6273 17.714C35.6273 15.6326 34.9954 13.9228 33.8804 13.9228ZM31.1671 24.1069C32.2078 24.1069 33.2485 23.6609 34.0662 22.7317C31.6503 21.6538 30.1264 19.1264 30.1264 16.7104C30.1264 15.8927 30.2751 15.0379 30.4981 14.2945C29.0114 15.5211 28.1565 17.937 28.1565 20.0556C28.1565 22.806 29.4574 24.1069 31.1671 24.1069Z" fill="black"/>
<path d="M27.1094 15.9075C26.589 15.9075 26.143 16.1677 25.8456 16.8739C24.8793 19.327 22.8721 23.4899 20.8278 23.4899C19.5406 23.4899 18.5445 23.1988 17.5379 22.9046C16.51 22.6042 15.4712 22.3005 14.1003 22.3005C13.6171 22.3005 12.948 22.3749 12.3162 22.4864C14.2198 19.8906 14.9309 16.7469 15.62 10.8046C14.3225 10.722 13.2671 10.4823 12.4978 10.2402C11.6762 17.7767 10.7431 20.6503 7.33554 23.4899C6.88951 23.8616 6.6665 24.382 6.6665 24.9024C6.6665 25.7201 7.37272 26.4263 8.26477 26.4263C8.56212 26.4263 8.89663 26.3148 9.23115 26.1661C11.1268 25.3112 12.279 25.0882 13.6914 25.0882C14.5896 25.0882 15.6643 25.3451 16.815 25.62C18.1404 25.9368 19.5665 26.2776 20.9394 26.2776C23.95 26.2776 25.92 23.3413 28.1129 17.6544C28.2245 17.4686 28.2616 17.2456 28.2616 17.0597C28.2616 16.3535 27.7041 15.9075 27.1094 15.9075Z" fill="black"/>
<path fill-rule="evenodd" clip-rule="evenodd" d="M12.6862 8.70287C13.3593 8.93784 14.4101 9.2114 15.7725 9.29233L15.9955 9.29222C20.1956 9.29222 22.9461 6.6904 22.9461 3.56821C22.9461 1.56109 21.385 0 19.192 0C16.2557 0 14.2114 2.00712 13.1707 5.98419C11.8698 5.27798 10.9777 4.01424 10.5317 2.41598C10.3087 1.63543 9.82549 1.15223 9.15644 1.15223C8.33873 1.15223 7.81836 1.78411 7.81836 2.63899C7.81836 5.16648 9.78832 7.58245 12.6875 8.69752L12.6862 8.70287ZM16.2185 6.57889C16.776 4.01424 17.6681 2.78767 18.8575 2.78767C19.4894 2.78767 19.8982 3.15936 19.8982 3.8284C19.8982 5.05497 18.5973 6.50455 16.2185 6.57889Z" fill="black"/>
</g>
</g>
<defs>
<clipPath id="clip0_6942_10283">
<rect width="84" height="36" fill="white"/>
</clipPath>
<clipPath id="clip1_6942_10283">
<rect width="70" height="36" fill="white" transform="translate(6.6665)"/>
</clipPath>
</defs>
</svg>
